<?xml version="1.0" encoding="UTF-8"?>
<svg width="89px" height="87px" viewBox="0 0 89 87" version="1.1" xmlns="http://www.w3.org/2000/svg" xmlns:xlink="http://www.w3.org/1999/xlink">
    <title>bsky</title>
    <g id="Page-1" stroke="none" stroke-width="1" fill="none" fill-rule="evenodd">
        <g id="Wall" transform="translate(-327, -248)" fill="#0085FF" fill-rule="nonzero">
            <path d="M390.259937,265.130441 C395.885875,260.802618 405,257.452815 405,268.110094 C405,270.237642 403.81,285.990182 403.110875,288.547581 C400.684125,297.437693 391.838813,299.705269 383.971,298.333217 C397.724,300.732136 401.22175,308.677877 393.666313,316.623618 C379.554282,331.465802 373.251646,313.45186 371.519075,308.251516 C371.497172,308.320317 371.472833,308.393402 371.447323,308.470007 C369.840823,313.306922 363.565698,332.184569 349.216635,317.093089 C341.661198,309.147349 345.158948,301.201608 358.911948,298.802689 C351.044135,300.17474 342.198823,297.907165 339.772073,289.017053 C339.072948,286.459653 337.882948,270.707114 337.882948,268.579566 C337.882948,257.922286 346.998135,261.272089 352.62301,265.599913 C359.98649,271.26685 367.877048,282.432868 371.323209,289.153994 C374.631736,282.495547 382.72201,270.931633 390.259937,265.130441 Z" id="bsky" transform="translate(371, 291.6829) rotate(-28) translate(-371, -291.6829)"></path>
        </g>
    </g>
</svg>