<?xml version="1.0" encoding="UTF-8"?>
<svg width="90px" height="87px" viewBox="0 0 90 87" version="1.1" xmlns="http://www.w3.org/2000/svg" xmlns:xlink="http://www.w3.org/1999/xlink">
    <title>bsky</title>
    <g id="Page-1" stroke="none" stroke-width="1" fill="none" fill-rule="evenodd">
        <g id="Wall" transform="translate(-326, -248)" fill="#0085FF" fill-rule="nonzero">
            <path d="M351.740063,265.130441 C359.535625,271.12991 367.921938,283.292755 371,289.819768 L371,307.059421 C371,306.692527 370.861875,307.107182 370.564375,308.000535 C368.957875,312.837451 362.68275,331.715098 348.333687,316.623618 C340.77825,308.677877 344.276,300.732136 358.029,298.333217 C350.161187,299.705269 341.315875,297.437693 338.889125,288.547581 C338.19,285.990182 337,270.237642 337,268.110094 C337,257.452815 346.115187,260.802618 351.740063,265.130441 Z M390.259937,265.130441 C382.464375,271.12991 374.078062,283.292755 371,289.819768 L371,307.059421 C371,306.692527 371.138125,307.107182 371.435625,308.000535 C373.042125,312.837451 379.31725,331.715098 393.666313,316.623618 C401.22175,308.677877 397.724,300.732136 383.971,298.333217 C391.838813,299.705269 400.684125,297.437693 403.110875,288.547581 C403.81,285.990182 405,270.237642 405,268.110094 C405,257.452815 395.885875,260.802618 390.259937,265.130441 L390.259937,265.130441 Z" id="bsky" transform="translate(371, 291.6829) rotate(-28) translate(-371, -291.6829)"></path>
        </g>
    </g>
</svg>