<?xml version="1.0" encoding="UTF-8"?>
<svg width="354px" height="290px" viewBox="0 0 354 290" version="1.1" xmlns="http://www.w3.org/2000/svg" xmlns:xlink="http://www.w3.org/1999/xlink">
    <title>iMac</title>
    <defs>
        <rect id="path-1" x="0" y="0" width="354" height="240" rx="9"></rect>
    </defs>
    <g id="Page-1" stroke="none" stroke-width="1" fill="none" fill-rule="evenodd">
        <g id="Wall" transform="translate(-472, -231)">
            <g id="iMac" transform="translate(472, 231)">
                <g id="device">
                    <mask id="mask-2" fill="white">
                        <use xlink:href="#path-1"></use>
                    </mask>
                    <use id="device-chin" fill="#BAD9C7" xlink:href="#path-1"></use>
                    <rect id="bezels" fill="#D9D9D9" mask="url(#mask-2)" x="0" y="0" width="354" height="208"></rect>
                    <rect id="display" fill="#000000" mask="url(#mask-2)" x="9" y="12" width="336" height="185"></rect>
                    <g id="HoverDisplay" mask="url(#mask-2)">
                        <g transform="translate(9, 12)">
                            <rect id="whitedisplay" fill="#6FCD91" x="0" y="0" width="336" height="185"></rect>
                            <path d="M168.156709,42 C196.409779,42 219.313418,64.9036388 219.313418,93.156709 C219.313418,113.3074 207.66269,130.736918 190.729981,139.076513 C190.185842,123.434638 185.257105,110.178989 178.355382,104.070656 C189.744133,101.088351 197.887707,93.1466026 197.887707,83.818575 C197.887707,78.1685513 194.900014,73.027122 190.013288,69.1877462 L189.292041,57.5856851 C189.138643,55.1159516 186.229611,53.8834142 184.348602,55.4911828 L175.617027,62.9544726 C173.296404,62.5272436 170.866415,62.3002791 168.363694,62.3002791 C165.864572,62.3002791 163.437974,62.5265912 161.120375,62.9526305 L152.391859,55.4911828 C150.51085,53.8834142 147.601818,55.1159516 147.448419,57.5856851 L146.728122,69.1767374 C141.83309,73.0172911 138.839681,78.1631493 138.839681,83.818575 C138.839681,93.7551089 148.080389,102.118599 160.640112,104.593074 C157.484486,107.611525 154.769357,112.145771 152.736378,117.716745 C144.247451,119.384041 139.193176,117.979527 137.429082,113.61062 C136.068091,110.240026 133.40768,108.125901 130.859242,107.774396 C129.725031,107.617954 128.790625,107.87864 128.452344,108.575112 C128.081491,109.338646 128.565231,110.256855 129.723363,111.18085 C131.113866,112.290236 131.825406,113.044543 132.32742,113.868416 C132.451244,114.071628 132.56665,114.283807 132.707037,114.561743 C132.745155,114.637209 133.077076,115.310128 133.192466,115.535224 C133.410344,115.960252 133.626763,116.351045 133.881749,116.770745 C134.529006,117.836112 135.385123,119.01512 136.581886,120.446271 C139.460981,123.889238 144.5657,124.181531 150.783567,122.88642 C150.870803,122.950022 150.975456,122.986244 151.096346,122.998555 C149.72154,128.279166 148.902208,134.221786 148.793208,140.520718 C130.140015,132.887454 117,114.556589 117,93.156709 C117,64.9036388 139.903639,42 168.156709,42 Z" id="GitHub-2" fill="#1F2329"></path>
                        </g>
                    </g>
                    <circle id="camera" fill="#000000" mask="url(#mask-2)" cx="177" cy="6" r="3"></circle>
                </g>
                <polygon id="stand" fill="#BAD9C7" fill-rule="nonzero" points="209.999969 230 215 290 139 290 143.999971 230"></polygon>
            </g>
        </g>
    </g>
</svg>